# xmcd
#
# Track frame offsets:
#	150
#	17005
#	33785
#	51535
#
# Disc length: 923 seconds
#
# Revision: 1
# Processed by: cddbd v1.5.2PL0 Copyright (c) Steve Scherf et al.
# Submitted via: EasyCDDAExtractor 10.0.2.1
#
DISCID=2a039904
DTITLE=JOHN LEGEND - SAVE ROOM (SINGLE)
DYEAR=2006
DGENRE=Blues
TTITLE0=SAVE ROOM - RADIO EDIT
TTITLE1=SAVE ROOM - ALTERNATE RADIO EDIT
TTITLE2=SAVE ROOM - ALBUM VERSION
TTITLE3=SAVE ROOM - INSTRUMENTAL
EXTD=genre:hip-hop
EXTT0=
EXTT1=
EXTT2=
EXTT3=
PLAYORDER=
